Coordinates
version=1
nRows=8
nColumns=27
inDegrees=yes

Units are S.I. units (second, meters, Newtons, ...)
If the header above contains a line with 'inDegrees', this indicates whether rotational values are in degrees (yes) or radians (no).

endheader
time	pelvis_rotation	pelvis_tilt	pelvis_list	pelvis_tx	pelvis_ty	pelvis_tz	hip_flexion_r	hip_adduction_r	hip_rotation_r	knee_angle_r	knee_rotation_r	knee_adduction_r	knee_angle_r_beta	ankle_angle_r	subtalar_angle_r	mtp_angle_r	hip_flexion_l	hip_adduction_l	hip_rotation_l	knee_angle_l	knee_rotation_l	knee_adduction_l	knee_angle_l_beta	ankle_angle_l	subtalar_angle_l	mtp_angle_l
     12.34500000	      8.85094927	    -48.15065068	      6.36304590	     -0.13487449	      0.74833726	     -1.19321927	    105.40555842	    -15.30372022	     -0.71499046	     71.98137576	      0.00000000	      3.85307165	      1.25631201	     12.98558577	      0.00000000	      0.00000000	    103.50746186	     -6.72335708	     -7.28644849	     66.81116982	      0.00000000	     -9.42507398	      1.16607489	     10.06822230	      0.00000000	      0.00000000
     12.35000000	      8.65139161	    -48.13373377	      6.16120928	     -0.13471783	      0.74847032	     -1.19314035	    105.29795359	    -15.13195107	     -0.74908315	     71.91893172	      0.00000000	      3.69788059	      1.25522215	     12.95814294	      0.00000000	      0.00000000	    103.49111943	     -6.80214617	     -7.11654219	     66.81995399	      0.00000000	     -9.07361985	      1.16622820	     10.01514305	      0.00000000	      0.00000000
     12.35500000	      8.82525477	    -48.15496100	      6.36011519	     -0.13449386	      0.74855309	     -1.19318801	    105.36593065	    -15.28988327	     -0.73029700	     71.96838441	      0.00000000	      3.85411692	      1.25608527	     13.00231245	      0.00000000	      0.00000000	    103.46882424	     -6.71755345	     -7.26264822	     66.80334447	      0.00000000	     -9.42442730	      1.16593831	     10.10548592	      0.00000000	      0.00000000
     12.36000000	      8.77711462	    -48.18390417	      6.34057481	     -0.13433755	      0.74867982	     -1.19314661	    105.37082384	    -15.24917899	     -0.73108995	     71.94938104	      0.00000000	      3.85184492	      1.25575359	     13.00273021	      0.00000000	      0.00000000	    103.47525529	     -6.74394307	     -7.25253347	     66.79753633	      0.00000000	     -9.42182376	      1.16583694	     10.10476878	      0.00000000	      0.00000000
     12.36500000	      8.91974216	    -48.18797101	      6.35034634	     -0.13410405	      0.74882566	     -1.19320258	    105.33376100	    -15.40183223	     -0.84048577	     71.95419102	      0.00000000	      3.86922901	      1.25583754	     13.02260281	      0.00000000	      0.00000000	    103.47792381	     -6.58160173	     -7.12707777	     66.76896300	      0.00000000	     -9.41144486	      1.16533824	     10.10882138	      0.00000000	      0.00000000
     12.37000000	      8.59469332	    -48.20599022	      6.20236831	     -0.13399500	      0.74903256	     -1.19298908	    105.29766222	    -15.10713968	     -0.78302704	     71.87745618	      0.00000000	      3.83902227	      1.25449827	     12.98026866	      0.00000000	      0.00000000	    103.44575567	     -6.84913556	     -7.18040765	     66.78203004	      0.00000000	     -9.41541877	      1.16556631	     10.11955258	      0.00000000	      0.00000000
     12.37500000	      8.62560247	    -48.18182143	      5.68580122	     -0.13359102	      0.74929092	     -1.19285945	    104.99342786	    -15.27021454	     -1.35350309	     71.79719851	      0.00000000	      3.68997311	      1.25309751	     13.01033760	      0.00000000	      0.00000000	    103.52977711	     -6.63777479	     -6.51363944	     66.78838994	      0.00000000	     -9.03639944	      1.16567731	      9.97946155	      0.00000000	      0.00000000
     12.38000000	      8.29905855	    -48.21022604	      6.04265904	     -0.13364587	      0.74946214	     -1.19272026	    105.19611804	    -14.84812741	     -0.77598671	     71.77644428	      0.00000000	      3.77507746	      1.25273528	     12.94607543	      0.00000000	      0.00000000	    103.36531089	     -7.06863868	     -7.18313101	     66.75245279	      0.00000000	     -9.41916147	      1.16505008	     10.13520389	      0.00000000	      0.00000000
